<?xml version="1.0" standalone="no"?>
<!DOCTYPE svg PUBLIC "-//W3C//DTD SVG 20010904//EN"
 "http://www.w3.org/TR/2001/REC-SVG-20010904/DTD/svg10.dtd">
<svg version="1.0" xmlns="http://www.w3.org/2000/svg"
 width="965.000000pt" height="965.000000pt" viewBox="0 0 965.000000 965.000000"
 preserveAspectRatio="xMidYMid meet">
<metadata>
Created by potrace 1.11, written by Peter Selinger 2001-2013
</metadata>
<g transform="translate(0.000000,965.000000) scale(0.100000,-0.100000)"
fill="#000000" stroke="none">
<path d="M4120 8946 c-7 -10 -20 -33 -29 -50 -10 -17 -39 -66 -65 -109 -25
-43 -46 -80 -46 -83 0 -2 -15 -27 -33 -56 -19 -29 -37 -60 -40 -68 -4 -8 -15
-28 -26 -45 -21 -34 -124 -212 -154 -265 -10 -19 -23 -39 -27 -45 -4 -5 -19
-30 -32 -55 -32 -57 -58 -103 -92 -160 -14 -25 -44 -76 -67 -115 -22 -38 -49
-86 -61 -105 -11 -19 -81 -141 -156 -270 -74 -129 -157 -273 -185 -320 -27
-47 -66 -114 -87 -150 -82 -142 -155 -268 -195 -335 -23 -38 -44 -77 -48 -85
-4 -8 -18 -33 -32 -55 -14 -22 -28 -47 -32 -55 -3 -8 -13 -23 -21 -32 -8 -10
-11 -18 -6 -18 5 0 4 -4 -2 -8 -6 -4 -35 -50 -65 -102 -30 -52 -59 -104 -66
-115 -7 -11 -15 -27 -19 -35 -4 -8 -24 -42 -45 -76 -20 -33 -40 -70 -43 -82
-4 -12 -12 -22 -17 -22 -5 0 -9 -4 -9 -9 0 -5 -20 -42 -45 -83 -25 -40 -51
-85 -57 -100 -7 -16 -16 -28 -20 -28 -4 0 -8 -4 -8 -10 0 -5 -66 -124 -147
-262 -198 -343 -189 -327 -219 -383 -15 -27 -30 -52 -35 -55 -4 -3 -12 -17
-18 -30 -6 -14 -22 -43 -35 -65 -14 -22 -34 -57 -45 -77 -36 -66 -46 -83 -57
-98 -7 -8 -29 -46 -49 -85 -21 -38 -41 -72 -44 -75 -3 -3 -17 -25 -30 -50 -26
-49 -78 -138 -123 -211 -15 -25 -28 -51 -28 -57 0 -7 -4 -12 -10 -12 -5 0 -10
-5 -10 -10 0 -6 -11 -27 -23 -48 -13 -20 -38 -62 -54 -92 -17 -30 -51 -89 -76
-130 -25 -41 -56 -95 -69 -120 -13 -25 -26 -46 -30 -48 -5 -2 -8 -8 -8 -12 0
-5 -26 -53 -58 -107 -33 -54 -85 -143 -116 -198 -32 -55 -61 -107 -67 -115 -9
-15 -126 -218 -159 -275 -9 -16 -41 -72 -71 -123 -30 -52 -65 -112 -78 -135
-13 -23 -29 -51 -36 -62 -7 -11 -12 -24 -13 -29 0 -5 -4 -12 -9 -15 -9 -7 -22
-28 -67 -111 -16 -30 -33 -57 -38 -58 -4 -2 -8 -7 -8 -12 0 -5 -48 -91 -107
-192 -59 -101 -113 -194 -120 -208 -28 -49 -61 -107 -126 -218 -37 -62 -67
-117 -67 -123 0 -5 -3 -9 -8 -9 -4 0 -12 -10 -17 -22 -9 -20 4 -46 85 -181 52
-87 100 -165 105 -175 6 -10 60 -99 120 -199 61 -100 124 -205 140 -232 73
-123 142 -237 160 -266 11 -18 31 -51 44 -73 l24 -41 966 -1 c531 -1 2395 -3
4142 -5 l3175 -3 70 121 c38 66 73 130 79 141 5 12 12 23 15 26 5 4 62 103
133 230 10 19 34 60 53 91 19 31 34 61 34 67 0 6 4 12 8 14 5 2 30 41 56 88
26 47 51 92 56 100 34 54 140 244 140 251 0 5 4 9 9 9 33 0 2 70 -109 250 -50
80 -81 135 -87 153 -3 9 -9 17 -14 17 -5 0 -9 4 -9 10 0 5 -14 33 -31 62 -18
29 -39 67 -49 83 -9 17 -47 81 -84 142 -37 62 -65 115 -64 117 2 2 -4 12 -13
22 -8 11 -41 62 -71 114 -239 407 -318 544 -318 552 0 4 -4 8 -9 8 -5 0 -11 6
-13 13 -2 6 -30 58 -63 115 -33 56 -67 114 -75 130 -9 15 -46 78 -83 140 -37
62 -67 117 -67 122 0 6 -4 10 -10 10 -5 0 -10 5 -10 10 0 6 -27 56 -61 113
-33 56 -64 109 -69 117 -5 8 -72 123 -149 255 -77 132 -144 245 -148 250 -4 6
-15 24 -23 40 -8 17 -17 32 -20 35 -5 5 -11 16 -52 89 -11 20 -35 61 -53 91
-109 180 -395 674 -395 681 0 5 -4 9 -10 9 -5 0 -10 4 -10 10 0 5 -33 65 -73
132 -40 68 -84 143 -98 168 -13 25 -27 47 -30 50 -3 3 -22 34 -42 70 -50 89
-67 117 -242 415 -84 143 -160 274 -169 290 -9 17 -21 37 -26 45 -15 23 -114
190 -142 240 -39 68 -116 199 -208 355 -46 77 -97 165 -113 195 -17 30 -34 57
-39 58 -4 2 -8 8 -8 14 0 9 -39 78 -88 153 -6 11 -15 27 -19 35 -4 8 -40 70
-80 138 -40 67 -73 124 -73 127 0 2 -22 39 -48 82 -27 43 -60 98 -74 123 -14
25 -34 59 -44 77 -10 17 -66 112 -123 210 -57 98 -134 228 -170 288 l-66 110
-677 0 c-652 0 -677 -1 -688 -19z m800 -3518 c29 -50 68 -121 87 -157 20 -36
39 -68 42 -71 3 -3 16 -25 29 -50 12 -25 33 -63 45 -85 13 -22 41 -71 62 -110
56 -101 69 -125 80 -143 33 -56 153 -271 204 -364 18 -35 38 -70 45 -78 6 -8
22 -37 36 -65 14 -27 28 -51 33 -53 4 -2 7 -7 7 -11 0 -4 28 -57 61 -117 104
-185 155 -277 184 -329 16 -27 66 -117 113 -200 46 -82 100 -179 120 -215 19
-36 46 -82 59 -102 12 -21 23 -40 23 -42 0 -2 23 -43 50 -91 28 -48 50 -90 50
-95 0 -4 6 -13 14 -19 8 -6 16 -21 19 -31 5 -20 -8 -20 -1469 -20 -1399 0
-1473 1 -1467 18 4 9 24 44 44 77 21 33 49 79 63 101 14 23 26 46 26 52 0 6 3
12 8 14 6 3 181 288 191 313 2 5 23 39 46 75 23 36 44 70 46 75 9 22 94 161
106 173 7 7 13 18 13 23 0 6 17 36 37 67 20 31 37 59 38 62 0 3 8 16 16 30 9
14 42 68 73 120 31 52 61 102 66 110 5 8 33 55 62 104 29 48 63 105 76 125 12
20 34 56 47 81 14 25 39 65 55 90 16 25 33 52 37 60 3 8 17 32 30 53 13 21 32
53 42 70 10 18 64 108 120 200 55 93 101 172 101 178 0 5 4 9 8 9 5 0 16 15
25 33 9 17 28 50 41 72 14 22 40 66 58 98 18 31 36 57 40 57 4 0 30 -41 58
-92z"/>
</g>
</svg>
